<?xml version="1.0" encoding="UTF-8"?>
<!DOCTYPE svg PUBLIC "-//W3C//DTD SVG 1.1//EN" "http://www.w3.org/Graphics/SVG/1.1/DTD/svg11.dtd">
<!-- Creator: CorelDRAW 2020 (64-Bit Evaluation Version) -->
<svg xmlns="http://www.w3.org/2000/svg" xml:space="preserve" width="22.4062in" height="8.78444in" version="1.1" style="shape-rendering:geometricPrecision; text-rendering:geometricPrecision; image-rendering:optimizeQuality; fill-rule:evenodd; clip-rule:evenodd"
viewBox="0 0 61889.49 24263.99"
 xmlns:xlink="http://www.w3.org/1999/xlink"
 xmlns:xodm="http://www.corel.com/coreldraw/odm/2003">
 <defs>
  <style type="text/css">
   <![CDATA[
    .str0 {stroke:#211915;stroke-width:38.37;stroke-miterlimit:2.61313}
    .fil0 {fill:#341438;fill-rule:nonzero}
    .fil1 {fill:white;fill-rule:nonzero}
   ]]>
  </style>
 </defs>
 <g id="Layer_x0020_1">
  <metadata id="CorelCorpID_0Corel-Layer"/>
  <circle class="fil0 str0" cx="12131.99" cy="12131.99" r="12112.81"/>
  <g id="_2027976813152">
   <path class="fil1" d="M20724.94 10284.98l-2351.67 0 -563.94 1599.74 -1066.5 -4047.32 -1185.42 5374.7 -1085.68 -6617.67 -863.17 3686.7 -897.71 0 0 517.9 1212.28 0 471.87 -2102.3 1020.46 6329.94 1335.05 -5125.33 1058.83 3195.66 932.23 -2363.18 1116.36 0c-840.15,2040.93 -2781.34,3698.22 -2781.34,3698.22l-1365.73 1212.28 -3456.53 2812.03 -3456.53 -2812.03 -1365.73 -1212.28c0,0 -4929.67,-4216.13 -2474.43,-7461.66 1058.83,-1404.1 2528.14,-1561.39 3897.71,-1254.48 870.85,195.66 970.59,1085.68 1078.01,1546.03 111.26,468.03 -38.37,2585.68 -38.37,2585.68 0,1116.37 993.6,1661.13 1208.44,1757.04l-118.92 -1937.35c0,122.76 -38.37,506.4 -126.6,506.4l-65.19 0.01c-46.03,0 -99.74,-61.38 -99.74,-149.61l0 -379.8c0,0 72.89,-2083.12 -46.03,-2823.53 -141.95,-886.2 -774.94,-1960.36 -1714.84,-2167.52 -1641.95,-360.61 -3698.22,-49.87 -5102.31,1875.96 -2677.77,3675.19 2892.57,8416.88 2892.57,8416.88l1572.9 1446.29 3974.44 3349.11 3924.57 -3310.75 1618.93 -1488.5c0,0 2593.36,-2221.23 3349.11,-4664.98l-437.34 0.01 0 7.67z"/>
   <path class="fil1" d="M11621.34 12652l0 0c-349.11,0 -632.99,-283.89 -632.99,-632.99l0 -2946.3c0,-349.11 283.89,-632.99 632.99,-632.99l0 -0.01c349.11,0 632.99,283.89 632.99,632.99l0 2946.31c0,349.1 -283.89,632.99 -632.99,632.99z"/>
  </g>
  <path class="fil0" d="M34931.31 13896.79c0,401.58 -103.91,746.78 -311.74,1035.63 -207.82,288.85 -487.88,510.77 -840.13,665.77 -352.26,155 -739.74,232.49 -1162.44,232.49l-3582.45 0 0 -7503.06 3867.78 0c352.25,0 656.96,93.35 914.1,280.04 257.15,186.7 454.42,426.23 591.8,718.6 137.38,292.38 206.06,597.08 206.06,914.11 0,366.34 -93.35,709.8 -280.04,1030.35 -186.7,320.55 -452.65,558.33 -797.86,713.32 429.75,126.81 769.68,357.54 1019.78,692.18 250.11,334.64 375.15,741.5 375.15,1220.57zm-1215.28 -221.92c0,-211.36 -44.03,-403.34 -132.09,-575.94 -88.06,-172.6 -207.82,-313.5 -359.3,-422.71 -151.47,-109.2 -329.36,-163.79 -533.67,-163.79l-2472.84 0 0 2293.19 2398.87 0c211.35,0 399.81,-51.08 565.37,-153.23 165.56,-102.16 295.89,-239.54 391,-412.14 95.11,-172.6 142.66,-361.06 142.66,-565.37zm-3497.9 -4322.19l0 2208.65 2176.94 0c197.27,0 373.4,-47.55 528.39,-142.66 155,-95.11 278.28,-225.44 369.87,-391.01 91.59,-165.56 137.38,-354.01 137.38,-565.37 0,-218.4 -42.27,-410.38 -126.81,-575.93 -84.54,-165.57 -199.03,-295.9 -343.45,-391.01 -144.43,-95.11 -311.74,-142.66 -501.96,-142.66l-2240.35 0z"/>
  <path id="1" class="fil0" d="M38524.33 15936.36c-429.75,0 -819,-75.74 -1167.73,-225.44 -348.74,-149.71 -649.91,-357.55 -903.54,-618.21 -253.63,-262.44 -449.13,-563.61 -586.51,-903.54 -137.38,-338.17 -206.06,-700.99 -206.06,-1084.95 0,-516.06 119.76,-988.08 359.3,-1416.07 239.54,-427.99 574.18,-773.2 1003.93,-1033.87 429.75,-262.43 933.48,-392.76 1511.18,-392.76 577.69,0 1076.14,130.33 1495.33,392.76 419.18,260.68 745.02,604.12 977.51,1030.35 232.49,426.23 348.74,882.4 348.74,1370.28 0,84.54 -3.52,162.04 -10.57,236.01 -7.05,73.97 -14.09,133.86 -21.14,183.17l-4427.87 0c21.14,320.55 110.96,600.59 269.48,840.13 158.51,239.54 361.06,426.23 607.64,561.85 246.58,137.38 510.77,204.31 792.58,204.31 309.98,0 604.12,-77.49 882.4,-232.49 278.28,-155 466.74,-359.3 565.37,-612.93l993.36 285.33c-119.76,267.71 -301.18,509.01 -544.23,723.88 -243.06,214.88 -530.15,383.96 -861.27,507.26 -331.12,123.29 -690.42,184.93 -1077.9,184.93zm-1659.13 -3233.71l3339.39 0c-21.13,-309.99 -110.96,-584.75 -269.47,-824.29 -158.52,-237.77 -359.31,-424.47 -602.36,-558.33 -243.06,-135.62 -512.53,-202.55 -808.43,-202.55 -288.85,0 -554.8,66.93 -797.86,202.55 -243.06,133.86 -442.09,320.55 -597.07,558.33 -155,239.54 -243.06,514.29 -264.2,824.29z"/>
  <path id="2" class="fil0" d="M41905.99 14229.68c0,-348.73 100.39,-655.2 301.17,-915.86 200.79,-262.44 477.31,-464.99 829.57,-607.64 352.25,-142.66 760.86,-214.88 1225.85,-214.88 246.57,0 498.44,17.62 755.58,52.84 257.15,35.22 484.36,91.59 681.62,169.08l0 -346.97c0,-382.2 -116.25,-679.86 -348.74,-894.73 -232.49,-214.88 -567.13,-322.31 -1003.92,-322.31 -309.99,0 -602.36,54.6 -877.13,163.79 -274.76,109.2 -567.13,262.44 -877.11,459.69l-391.01 -782.01c366.36,-246.58 734.46,-429.75 1104.33,-549.52 369.87,-119.77 759.11,-179.65 1167.73,-179.65 739.74,0 1322.72,193.73 1748.96,579.45 426.23,387.48 639.34,935.24 639.34,1646.8l0 2036.05c0,133.86 22.9,227.2 68.7,283.57 45.79,54.6 125.05,86.3 237.77,93.35l0 929.95c-105.68,21.14 -200.79,35.22 -285.33,42.27 -84.54,7.05 -155,10.57 -211.36,10.57 -246.58,0 -433.28,-59.89 -560.09,-179.65 -126.81,-119.77 -200.79,-260.68 -221.92,-422.71l-31.7 -317.04c-239.54,309.99 -546,549.53 -919.4,718.61 -373.39,169.09 -750.31,253.63 -1130.74,253.63 -366.34,0 -693.94,-75.74 -982.79,-225.44 -288.85,-149.71 -514.29,-354.02 -676.33,-612.93 -162.04,-257.15 -243.06,-547.77 -243.06,-868.32zm3519.04 331.12c84.54,-89.82 151.47,-179.65 200.79,-269.47 49.31,-91.59 73.97,-170.85 73.97,-239.54l0 -623.5c-197.27,-75.73 -405.09,-133.86 -623.5,-172.6 -218.4,-36.98 -433.28,-56.36 -644.63,-56.36 -422.71,0 -766.16,82.78 -1030.35,250.11 -264.2,165.56 -396.29,394.52 -396.29,685.13 0,160.28 44.03,311.74 132.09,457.93 88.07,144.43 214.88,262.44 380.44,352.26 165.57,89.82 371.63,135.62 618.21,135.62 253.63,0 496.69,-49.32 729.18,-146.19 232.49,-96.87 419.18,-220.16 560.09,-373.39z"/>
  <path id="3" class="fil0" d="M51300.67 15566.49c-98.63,49.32 -221.93,102.15 -369.87,158.51 -147.95,56.36 -315.28,105.68 -501.97,147.95 -186.7,42.27 -378.68,63.41 -575.93,63.41 -239.54,0 -461.46,-42.27 -665.77,-126.82 -204.31,-82.78 -368.11,-218.4 -491.4,-405.09 -123.29,-184.93 -184.93,-426.23 -184.93,-720.37l0 -3439.77 -729.17 0 0 -898.26 729.17 0 0 -1817.65 1162.44 0 0 1817.65 1204.72 0 0 898.26 -1204.72 0 0 3068.15c14.09,188.46 75.74,329.36 184.93,419.18 109.2,91.59 244.82,137.38 406.86,137.38 162.03,0 317.03,-28.18 464.98,-84.54 147.95,-56.36 257.14,-102.16 327.6,-137.38l243.06 919.4z"/>
  <polygon id="4" class="fil0" points="52050.96,13463.52 52050.96,12417.32 55210.71,12417.32 55210.71,13463.52 "/>
  <path id="5" class="fil0" d="M59057.34 15936.36c-429.75,0 -819,-75.74 -1167.73,-225.44 -348.74,-149.71 -649.91,-357.55 -903.54,-618.21 -253.63,-262.44 -449.13,-563.61 -586.51,-903.54 -137.38,-338.17 -206.06,-700.99 -206.06,-1084.95 0,-516.06 119.76,-988.08 359.3,-1416.07 239.54,-427.99 574.18,-773.2 1003.93,-1033.87 429.75,-262.43 933.48,-392.76 1511.18,-392.76 577.69,0 1076.14,130.33 1495.33,392.76 419.18,260.68 745.02,604.12 977.51,1030.35 232.49,426.23 348.74,882.4 348.74,1370.28 0,84.54 -3.52,162.04 -10.57,236.01 -7.05,73.97 -14.09,133.86 -21.14,183.17l-4427.87 0c21.14,320.55 110.96,600.59 269.48,840.13 158.51,239.54 361.06,426.23 607.64,561.85 246.58,137.38 510.77,204.31 792.58,204.31 309.98,0 604.12,-77.49 882.4,-232.49 278.28,-155 466.74,-359.3 565.37,-612.93l993.36 285.33c-119.76,267.71 -301.18,509.01 -544.23,723.88 -243.06,214.88 -530.15,383.96 -861.27,507.26 -331.12,123.29 -690.42,184.93 -1077.9,184.93zm-1659.13 -3233.71l3339.39 0c-21.13,-309.99 -110.96,-584.75 -269.47,-824.29 -158.52,-237.77 -359.31,-424.47 -602.36,-558.33 -243.06,-135.62 -512.53,-202.55 -808.43,-202.55 -288.85,0 -554.8,66.93 -797.86,202.55 -243.06,133.86 -442.09,320.55 -597.07,558.33 -155,239.54 -243.06,514.29 -264.2,824.29z"/>
 </g>
</svg>
